<svg id="visual" viewBox="0 0 900 100" width="900" height="100" xmlns="http://www.w3.org/2000/svg" xmlns:xlink="http://www.w3.org/1999/xlink" version="1.1"><path d="M0 44L21.5 44.8C43 45.7 86 47.3 128.8 49.3C171.7 51.3 214.3 53.7 257.2 51.3C300 49 343 42 385.8 42.7C428.7 43.3 471.3 51.7 514.2 56.7C557 61.7 600 63.3 642.8 64.3C685.7 65.3 728.3 65.7 771.2 64.3C814 63 857 60 878.5 58.5L900 57L900 101L878.5 101C857 101 814 101 771.2 101C728.3 101 685.7 101 642.8 101C600 101 557 101 514.2 101C471.3 101 428.7 101 385.8 101C343 101 300 101 257.2 101C214.3 101 171.7 101 128.8 101C86 101 43 101 21.5 101L0 101Z" fill="#161235" stroke-linecap="round" stroke-linejoin="miter"></path></svg>